{"title":"Chelsea S01E04 720p WEBRip Xvid-Mp3","uid":14648089,"size":449928914,"categoryP":"video","categoryS":"hd___tv_shows","magnet":"?xt=urn:btih:6c83f9e7241d8cb64641ad24ce9760ee2e76df1a&amp;dn=Chelsea+S01E04+720p+WEBRip+Xvid-Mp3&amp;tr=udp%3A%2F%2Ftracker.leechers-paradise.org%3A6969&amp;tr=udp%3A%2F%2Fzer0day.ch%3A1337&amp;tr=udp%3A%2F%2Fopen.demonii.com%3A1337&amp;tr=udp%3A%2F%2Ftracker.coppersurfer.tk%3A6969&amp;tr=udp%3A%2F%2Fexodus.desync.com%3A6969","seeders":0,"leechers":1,"uploader":"TheRival","files":1,"time":1463608359,"description":"Screens: \nhttp://extraimago.com/image/aM7j\r\n\r\nVideo\r\nID : 0\r\nFormat : MPEG-4 Visual\r\nFormat profile :   \r\nFormat settings, BVOP : No\r\nFormat settings, QPel : No\r\nFormat settings, GMC : No warppoints\r\nFormat settings, Matrix : Default (H.263)\r\nCodec ID : XVID\r\nCodec ID/Hint : XviD\r\nDuration : 27mn 56s\r\nBit rate : 2 002 Kbps\r\nWidth : 1 280 pixels\r\nHeight : 720 pixels\r\nDisplay aspect ratio : 16:9\r\nFrame rate : 25.000 fps\r\nColor space : YUV\r\nChroma subsampling : 4:2:0\r\nBit depth : 8 bits\r\nScan type : Progressive\r\nCompression mode : Lossy\r\nBits/(Pixel*Frame) : 0.087\r\nStream size : 400 MiB (93%)\r\nWriting library : XviD 1.2.1 (UTC 2008-12-04)\r\n\r\nAudio\r\nID : 1\r\nFormat : MPEG Audio\r\nFormat version : Version 1\r\nFormat profile : Layer 3\r\nMode : Joint stereo\r\nMode extension : MS Stereo\r\nCodec ID : 55\r\nCodec ID/Hint : MP3\r\nDuration : 27mn 56s\r\nBit rate mode : Constant\r\nBit rate : 128 Kbps\r\nChannel(s) : 2 channels\r\nSampling rate : 48.0 KHz\r\nCompression mode : Lossy\r\nStream size : 25.6 MiB (6%)\r\nAlignment : Aligned on interleaves\r\nInterleave, duration : 24 ms (0.60 video frame)\r\nWriting library : LAME3.98.2","torrent":{"xt":"urn:btih:6c83f9e7241d8cb64641ad24ce9760ee2e76df1a","amp;dn":"Chelsea+S01E04+720p+WEBRip+Xvid-Mp3","amp;tr":["udp%3A%2F%2Ftracker.leechers-paradise.org%3A6969","udp%3A%2F%2Fzer0day.ch%3A1337","udp%3A%2F%2Fopen.demonii.com%3A1337","udp%3A%2F%2Ftracker.coppersurfer.tk%3A6969","udp%3A%2F%2Fexodus.desync.com%3A6969"],"infoHash":"6c83f9e7241d8cb64641ad24ce9760ee2e76df1a","infoHashBuffer":{"type":"Buffer","data":[108,131,249,231,36,29,140,182,70,65,173,36,206,151,96,238,46,118,223,26]},"announce":[],"urlList":[]}}